<svg xmlns="http://www.w3.org/2000/svg" version="1.1" xmlns:xlink="http://www.w3.org/1999/xlink" xmlns:svgjs="http://svgjs.dev/svgjs" width="2000" height="691" viewBox="0 0 2000 691"><g transform="matrix(1,0,0,1,-1.2121212121212466,-0.2856915088491405)"><svg viewBox="0 0 396 137" data-background-color="#ffffff" preserveAspectRatio="xMidYMid meet" height="691" width="2000" xmlns="http://www.w3.org/2000/svg" xmlns:xlink="http://www.w3.org/1999/xlink"><g id="tight-bounds" transform="matrix(1,0,0,1,0.2400000000000091,0.05664216600916916)"><svg viewBox="0 0 395.52 136.88671566798166" height="136.88671566798166" width="395.52"><g><svg viewBox="0 0 646.3061377318909 223.68205023810867" height="136.88671566798166" width="395.52"><g transform="matrix(1,0,0,1,250.78613773189088,66.36826020708618)"><svg viewBox="0 0 395.52 90.94552982393631" height="90.94552982393631" width="395.52"><g id="textblocktransform"><svg viewBox="0 0 395.52 90.94552982393631" height="90.94552982393631" width="395.52" id="textblock"><g><svg viewBox="0 0 395.52 57.40542768807969" height="57.40542768807969" width="395.52"><g transform="matrix(1,0,0,1,0,0)"><svg width="395.52" viewBox="3.75 -32.75 291.07 42.25000000000001" height="57.40542768807969" data-palette-color="#5b8166"><path d="M23.75-15.25L23.75-15.25 23.75-10.15 19.75-10.15 19.75-15.05Q19.75-17.85 18.18-19.15 16.6-20.45 13.95-20.45L13.95-20.45Q11.95-20.45 10.4-19.95 8.85-19.45 7.75-18.8L7.75-18.8 7.75-10.15 3.75-10.15 3.75-18.6Q3.75-19.65 4.17-20.33 4.6-21 5.65-21.65L5.65-21.65Q6.95-22.4 9.1-23.08 11.25-23.75 13.95-23.75L13.95-23.75Q18.5-23.75 21.13-21.68 23.75-19.6 23.75-15.25ZM3.75-1.55L3.75-12.9 7.75-12.9 7.75-0.1Q7.5 0 7 0.13 6.5 0.25 5.9 0.25L5.9 0.25Q4.85 0.25 4.3-0.18 3.75-0.6 3.75-1.55L3.75-1.55ZM19.75-1.55L19.75-12.9 23.75-12.9 23.75-0.1Q23.5 0 22.98 0.13 22.45 0.25 21.9 0.25L21.9 0.25Q20.8 0.25 20.28-0.18 19.75-0.6 19.75-1.55L19.75-1.55ZM35.95-5.15L35.95-5.15Q35.1-6.75 33.9-9.47 32.7-12.2 31.42-15.58 30.15-18.95 29-22.45L29-22.45Q29.35-22.95 29.92-23.25 30.5-23.55 31.15-23.55L31.15-23.55Q32-23.55 32.55-23.1 33.1-22.65 33.45-21.6L33.45-21.6Q34.95-17.4 36.6-13.25 38.25-9.1 40.25-4.65L40.25-4.65 40.45-4.65Q41.5-6.75 42.65-9.9 43.8-13.05 44.85-16.55 45.9-20.05 46.6-23.15L46.6-23.15Q46.95-23.3 47.37-23.43 47.8-23.55 48.3-23.55L48.3-23.55Q49.15-23.55 49.7-23.13 50.25-22.7 50.25-21.85L50.25-21.85Q50.25-21.05 49.8-19.18 49.35-17.3 48.57-14.83 47.8-12.35 46.77-9.58 45.75-6.8 44.57-4.13 43.4-1.45 42.2 0.7L42.2 0.7Q39.9 4.95 38 7.23 36.1 9.5 34.5 9.5L34.5 9.5Q33.35 9.5 32.72 8.9 32.1 8.3 31.95 7.5L31.95 7.5Q33.05 6.55 34.42 4.98 35.8 3.4 37.07 1.58 38.35-0.25 39.15-1.9L39.15-1.9Q38.3-2.15 37.57-2.8 36.85-3.45 35.95-5.15ZM55.7-8.45L55.7-8.45 55.7-13 59.7-13 59.7-8.65Q59.7-5.45 61.4-4.05 63.1-2.65 66.1-2.65L66.1-2.65Q68.1-2.65 69.5-3.08 70.9-3.5 71.7-3.95L71.7-3.95 71.7-13 75.7-13 75.7-4.1Q75.7-3.05 75.42-2.43 75.15-1.8 74.1-1.2L74.1-1.2Q73-0.55 70.95 0.05 68.9 0.65 66.05 0.65L66.05 0.65Q62.75 0.65 60.42-0.33 58.1-1.3 56.9-3.33 55.7-5.35 55.7-8.45ZM75.7-21.5L75.7-10.4 71.7-10.4 71.7-23Q71.95-23.1 72.47-23.23 73-23.35 73.55-23.35L73.55-23.35Q74.65-23.35 75.17-22.93 75.7-22.5 75.7-21.5L75.7-21.5ZM59.7-21.5L59.7-10.4 55.7-10.4 55.7-23Q55.95-23.1 56.47-23.23 57-23.35 57.6-23.35L57.6-23.35Q58.65-23.35 59.17-22.93 59.7-22.5 59.7-21.5L59.7-21.5ZM101.84-16L101.84-16 101.84-10.25 97.84-10.25 97.84-15.7Q97.84-18.15 96.42-19.3 94.99-20.45 92.64-20.45L92.64-20.45Q91.09-20.45 89.64-19.95 88.19-19.45 87.19-18.8L87.19-18.8 87.19-10.25 83.19-10.25 83.19-18.6Q83.19-19.6 83.62-20.3 84.04-21 85.09-21.65L85.09-21.65Q86.44-22.5 88.52-23.13 90.59-23.75 92.69-23.75L92.69-23.75Q95.24-23.75 97.19-22.98 99.14-22.2 100.09-20.85L100.09-20.85Q100.39-20.55 100.59-20.3 100.79-20.05 100.99-19.65L100.99-19.65Q101.34-19.05 101.59-18.1 101.84-17.15 101.84-16ZM116.49-15.9L116.49-15.9 116.49-10.25 112.49-10.25 112.49-15.7Q112.49-18.15 111.09-19.3 109.69-20.45 107.34-20.45L107.34-20.45Q105.59-20.45 103.97-19.73 102.34-19 101.04-17.65L101.04-17.65 99.44-20.55Q100.74-21.85 102.84-22.8 104.94-23.75 107.64-23.75L107.64-23.75Q110.34-23.75 112.32-22.9 114.29-22.05 115.39-20.3 116.49-18.55 116.49-15.9ZM83.19-1.55L83.19-12.9 87.19-12.9 87.19-0.1Q86.94 0 86.44 0.13 85.94 0.25 85.34 0.25L85.34 0.25Q84.29 0.25 83.74-0.18 83.19-0.6 83.19-1.55L83.19-1.55ZM97.84-1.55L97.84-12.9 101.84-12.9 101.84-0.1Q101.59 0 101.07 0.13 100.54 0.25 99.99 0.25L99.99 0.25Q98.89 0.25 98.37-0.18 97.84-0.6 97.84-1.55L97.84-1.55ZM112.49-1.55L112.49-12.9 116.49-12.9 116.49-0.1Q116.24 0 115.72 0.13 115.19 0.25 114.64 0.25L114.64 0.25Q113.54 0.25 113.02-0.18 112.49-0.6 112.49-1.55L112.49-1.55ZM134.29-23.75L134.29-23.75Q137.39-23.75 139.87-22.43 142.34-21.1 143.77-18.4 145.19-15.7 145.19-11.55L145.19-11.55Q145.19-7.35 143.72-4.65 142.24-1.95 139.64-0.65 137.04 0.65 133.59 0.65L133.59 0.65Q131.14 0.65 129.17 0.05 127.19-0.55 125.94-1.25L125.94-1.25Q124.89-1.95 124.49-2.55 124.09-3.15 124.09-4.2L124.09-4.2 124.09-20.85 128.09-20.85 128.09-4.2Q128.84-3.65 130.29-3.15 131.74-2.65 133.59-2.65L133.59-2.65Q136.99-2.65 139.06-4.8 141.14-6.95 141.14-11.55L141.14-11.55Q141.14-16.2 139.04-18.32 136.94-20.45 133.69-20.45L133.69-20.45Q131.69-20.45 130.14-19.68 128.59-18.9 127.59-17.9L127.59-17.9 126.84-21.15Q127.94-22 129.79-22.88 131.64-23.75 134.29-23.75ZM128.09-30.95L128.09-20.05 124.09-20.05 124.09-32.4Q124.34-32.5 124.87-32.63 125.39-32.75 125.99-32.75L125.99-32.75Q127.04-32.75 127.57-32.33 128.09-31.9 128.09-30.95L128.09-30.95ZM159.69 0.7L159.69 0.7Q154.99 0.7 152.41-1.15 149.84-3 149.84-6.5L149.84-6.5Q149.84-9.75 152.01-11.48 154.19-13.2 158.04-13.55L158.04-13.55 165.14-14.25 165.14-15.65Q165.14-18.15 163.64-19.3 162.14-20.45 159.59-20.45L159.59-20.45Q157.54-20.45 155.66-19.85 153.79-19.25 152.34-18.5L152.34-18.5Q151.94-18.85 151.61-19.33 151.29-19.8 151.29-20.3L151.29-20.3Q151.29-21.6 152.74-22.3L152.74-22.3Q154.09-23 155.86-23.38 157.64-23.75 159.64-23.75L159.64-23.75Q163.99-23.75 166.54-21.8 169.09-19.85 169.09-15.65L169.09-15.65 169.09-3.8Q169.09-2.7 168.66-2.13 168.24-1.55 167.39-1.05L167.39-1.05Q166.19-0.4 164.19 0.15 162.19 0.7 159.69 0.7ZM159.69-2.6L159.69-2.6Q161.79-2.6 163.16-3.03 164.54-3.45 165.14-3.85L165.14-3.85 165.14-11.1 158.94-10.45Q156.34-10.25 155.09-9.3 153.84-8.35 153.84-6.55L153.84-6.55Q153.84-4.7 155.31-3.65 156.79-2.6 159.69-2.6ZM200.93-17.2L200.93-17.2Q200.03-14.05 199.01-10.9 197.98-7.75 197.03-5 196.08-2.25 195.28-0.25L195.28-0.25Q194.88 0 194.38 0.15 193.88 0.3 193.03 0.3L193.03 0.3Q192.23 0.3 191.56 0.03 190.88-0.25 190.63-0.85L190.63-0.85Q190.13-1.85 189.51-3.75 188.88-5.65 188.21-8.1 187.53-10.55 186.83-13.18 186.13-15.8 185.56-18.25 184.98-20.7 184.58-22.6L184.58-22.6Q184.93-22.95 185.46-23.25 185.98-23.55 186.73-23.55L186.73-23.55Q187.68-23.55 188.16-23.03 188.63-22.5 188.83-21.35L188.83-21.35Q189.28-19.25 189.86-16.6 190.43-13.95 191.06-11.35 191.68-8.75 192.21-6.68 192.73-4.6 192.98-3.6L192.98-3.6 193.18-3.6Q193.58-4.8 194.43-7.53 195.28-10.25 196.46-13.75 197.63-17.25 198.83-20.85L198.83-20.85Q199.23-21.1 199.78-21.23 200.33-21.35 200.98-21.35L200.98-21.35Q201.88-21.35 202.48-21.03 203.08-20.7 203.28-20.05L203.28-20.05Q204.48-16.6 205.53-13.28 206.58-9.95 207.38-7.38 208.18-4.8 208.53-3.55L208.53-3.55 208.78-3.55Q209.93-8 211.28-13.1 212.63-18.2 213.48-23.1L213.48-23.1Q214.18-23.55 215.18-23.55L215.18-23.55Q216.03-23.55 216.53-23.15 217.03-22.75 217.03-21.9L217.03-21.9Q217.03-21.35 216.71-19.8 216.38-18.25 215.83-16.15 215.28-14.05 214.61-11.68 213.93-9.3 213.23-7.08 212.53-4.85 211.91-3.05 211.28-1.25 210.83-0.25L210.83-0.25Q210.58-0.05 210.01 0.13 209.43 0.3 208.68 0.3L208.68 0.3Q206.63 0.3 206.28-0.65L206.28-0.65Q205.58-2.45 204.68-5.13 203.78-7.8 202.83-10.93 201.88-14.05 200.93-17.2ZM241.08-11.35L224.28-9 224.08-12.15 239.18-14.2Q238.98-16.95 237.28-18.73 235.58-20.5 232.58-20.5L232.58-20.5Q229.48-20.5 227.45-18.28 225.43-16.05 225.43-11.9L225.43-11.9 225.43-10.8Q225.78-6.8 228.05-4.73 230.33-2.65 234.28-2.65L234.28-2.65Q236.38-2.65 238.08-3.35 239.78-4.05 240.78-4.85L240.78-4.85Q241.33-4.5 241.65-4.03 241.98-3.55 241.98-2.95L241.98-2.95Q241.98-2 240.9-1.18 239.83-0.35 238.05 0.15 236.28 0.65 234.08 0.65L234.08 0.65Q230.23 0.65 227.4-0.75 224.58-2.15 223.05-4.93 221.53-7.7 221.53-11.7L221.53-11.7Q221.53-14.55 222.35-16.78 223.18-19 224.65-20.55 226.13-22.1 228.18-22.93 230.23-23.75 232.63-23.75L232.63-23.75Q235.68-23.75 238-22.45 240.33-21.15 241.65-18.82 242.98-16.5 242.98-13.5L242.98-13.5Q242.98-12.4 242.48-11.93 241.98-11.45 241.08-11.35L241.08-11.35ZM259.08-23.75L259.08-23.75Q262.18-23.75 264.65-22.43 267.13-21.1 268.55-18.4 269.98-15.7 269.98-11.55L269.98-11.55Q269.98-7.35 268.5-4.65 267.03-1.95 264.43-0.65 261.83 0.65 258.38 0.65L258.38 0.65Q255.93 0.65 253.95 0.05 251.98-0.55 250.73-1.25L250.73-1.25Q249.68-1.95 249.28-2.55 248.88-3.15 248.88-4.2L248.88-4.2 248.88-20.85 252.88-20.85 252.88-4.2Q253.63-3.65 255.08-3.15 256.53-2.65 258.38-2.65L258.38-2.65Q261.78-2.65 263.85-4.8 265.93-6.95 265.93-11.55L265.93-11.55Q265.93-16.2 263.83-18.32 261.73-20.45 258.48-20.45L258.48-20.45Q256.48-20.45 254.93-19.68 253.38-18.9 252.38-17.9L252.38-17.9 251.63-21.15Q252.73-22 254.58-22.88 256.43-23.75 259.08-23.75ZM252.88-30.95L252.88-20.05 248.88-20.05 248.88-32.4Q249.13-32.5 249.65-32.63 250.18-32.75 250.78-32.75L250.78-32.75Q251.83-32.75 252.35-32.33 252.88-31.9 252.88-30.95L252.88-30.95ZM283.32-31.05L283.32-31.05Q288.07-31.05 291-28.98 293.92-26.9 293.92-22.75L293.92-22.75Q293.92-20.75 293.1-19.33 292.27-17.9 291.15-17.1 290.02-16.3 289.12-16.05L289.12-16.05Q290.47-15.65 291.77-14.68 293.07-13.7 293.95-12.18 294.82-10.65 294.82-8.5L294.82-8.5Q294.82-5.5 293.37-3.5 291.92-1.5 289.37-0.48 286.82 0.55 283.47 0.55L283.47 0.55Q280.72 0.55 278.6-0.03 276.47-0.6 275.27-1.5 274.07-2.4 274.07-3.4L274.07-3.4Q274.07-4.1 274.45-4.6 274.82-5.1 275.42-5.45L275.42-5.45Q276.72-4.45 278.6-3.65 280.47-2.85 283.47-2.85L283.47-2.85Q286.77-2.85 288.82-4.28 290.87-5.7 290.87-8.6L290.87-8.6Q290.87-11.15 288.97-12.7 287.07-14.25 283.47-14.25L283.47-14.25 279.32-14.25Q279.12-14.5 278.97-14.98 278.82-15.45 278.82-15.95L278.82-15.95Q278.82-16.5 278.97-16.95 279.12-17.4 279.32-17.65L279.32-17.65 283.12-17.65Q286.82-17.65 288.4-19.03 289.97-20.4 289.97-22.65L289.97-22.65Q289.97-25.1 288.17-26.38 286.37-27.65 283.27-27.65L283.27-27.65Q280.87-27.65 279.05-26.93 277.22-26.2 276.02-25.35L276.02-25.35Q275.52-25.6 275.12-26.15 274.72-26.7 274.72-27.35L274.72-27.35Q274.72-28.25 275.87-29.1 277.02-29.95 278.97-30.5 280.92-31.05 283.32-31.05Z" opacity="1" transform="matrix(1,0,0,1,0,0)" fill="#5b8166" class="wordmark-text-0" data-fill-palette-color="primary" id="text-0"></path></svg></g></svg></g><g transform="matrix(1,0,0,1,0,70.95747143497078)"><svg viewBox="0 0 232.209792 19.988058388965516" height="19.988058388965516" width="232.209792"><g transform="matrix(1,0,0,1,0,0)"><svg width="232.209792" viewBox="1.81 -38.09 566.35 48.760000000000005" height="19.988058388965516" data-palette-color="#0c0a0f"><path d="M10.6-19.56L10.6-19.56 10.6-3.76 14.58-3.08 14.58 0 1.81 0 1.81-3.08 5.79-3.76 5.79-22.63 1.81-23.32 1.81-26.42 10.11-26.42 10.42-22.97Q11.69-24.85 13.7-25.88 15.7-26.9 18.33-26.9L18.33-26.9Q20.97-26.9 22.86-25.68 24.76-24.46 25.71-22.02L25.71-22.02Q26.95-24.27 29-25.59 31.05-26.9 33.79-26.9L33.79-26.9Q37.84-26.9 40.19-24.13 42.53-21.36 42.53-15.8L42.53-15.8 42.53-3.76 46.51-3.08 46.51 0 33.72 0 33.72-3.08 37.7-3.76 37.7-15.84Q37.7-19.75 36.35-21.37 35.01-23 32.37-23L32.37-23Q29.86-23 28.33-21.23 26.81-19.46 26.56-16.77L26.56-16.77 26.56-3.76 30.54-3.08 30.54 0 17.77 0 17.77-3.08 21.75-3.76 21.75-15.84Q21.75-19.56 20.37-21.28 18.99-23 16.38-23L16.38-23Q14.18-23 12.77-22.09 11.35-21.19 10.6-19.56ZM58.62 0.51L58.62 0.51Q54.49 0.51 52.34-1.5 50.19-3.52 50.19-7.18L50.19-7.18Q50.19-9.72 51.58-11.57L51.58-11.57Q52.95-13.45 55.56-14.48 58.18-15.5 61.81-15.5L61.81-15.5 66.53-15.5 66.53-18.09Q66.53-20.48 65.07-21.8 63.62-23.12 60.98-23.12L60.98-23.12Q59.32-23.12 58.1-22.72 56.88-22.31 55.88-21.61L55.88-21.61 55.37-17.92 51.66-17.92 51.66-23.97Q55.25-26.9 61.06-26.9L61.06-26.9Q65.87-26.9 68.6-24.61 71.34-22.31 71.34-18.04L71.34-18.04 71.34-5.32Q71.34-4.81 71.35-4.32 71.36-3.83 71.41-3.34L71.41-3.34 73.97-3.08 73.97 0 67.06 0Q66.65-2 66.55-3.64L66.55-3.64Q65.16-1.86 63.07-0.67 60.98 0.51 58.62 0.51ZM59.32-3.52L59.32-3.52Q61.72-3.52 63.69-4.66 65.67-5.81 66.53-7.42L66.53-7.42 66.53-12.21 61.64-12.21Q58.32-12.21 56.66-10.62 55-9.03 55-7.08L55-7.08Q55-3.52 59.32-3.52ZM86.49-19.26L86.49-19.26 86.49-3.76 90.47-3.08 90.47 0 77.7 0 77.7-3.08 81.68-3.76 81.68-22.63 77.7-23.32 77.7-26.42 85.98-26.42 86.32-22.49Q87.64-24.58 89.63-25.74 91.62-26.9 94.16-26.9L94.16-26.9Q98.43-26.9 100.78-24.4 103.12-21.9 103.12-16.67L103.12-16.67 103.12-3.76 107.1-3.08 107.1 0 94.33 0 94.33-3.08 98.31-3.76 98.31-16.58Q98.31-20.07 96.93-21.53 95.55-23 92.72-23L92.72-23Q90.64-23 89.05-22 87.45-21 86.49-19.26ZM119.04 0.51L119.04 0.51Q114.91 0.51 112.76-1.5 110.61-3.52 110.61-7.18L110.61-7.18Q110.61-9.72 112-11.57L112-11.57Q113.37-13.45 115.98-14.48 118.6-15.5 122.23-15.5L122.23-15.5 126.95-15.5 126.95-18.09Q126.95-20.48 125.49-21.8 124.04-23.12 121.4-23.12L121.4-23.12Q119.74-23.12 118.52-22.72 117.3-22.31 116.3-21.61L116.3-21.61 115.79-17.92 112.08-17.92 112.08-23.97Q115.67-26.9 121.48-26.9L121.48-26.9Q126.29-26.9 129.02-24.61 131.76-22.31 131.76-18.04L131.76-18.04 131.76-5.32Q131.76-4.81 131.77-4.32 131.78-3.83 131.83-3.34L131.83-3.34 134.39-3.08 134.39 0 127.48 0Q127.07-2 126.97-3.64L126.97-3.64Q125.58-1.86 123.49-0.67 121.4 0.51 119.04 0.51ZM119.74-3.52L119.74-3.52Q122.14-3.52 124.11-4.66 126.09-5.81 126.95-7.42L126.95-7.42 126.95-12.21 122.06-12.21Q118.74-12.21 117.08-10.62 115.42-9.03 115.42-7.08L115.42-7.08Q115.42-3.52 119.74-3.52ZM156.66-26.42L163.98-26.42 163.98-23.34 160.71-22.63 160.71-0.34Q160.71 3.1 159.44 5.54L159.44 5.54Q158.17 8.01 155.7 9.34 153.24 10.67 149.72 10.67L149.72 10.67Q147.82 10.67 145.6 10.14 143.37 9.62 141.69 8.72L141.69 8.72 142.93 4.98Q144.28 5.69 146.11 6.15 147.94 6.62 149.67 6.62L149.67 6.62Q152.9 6.62 154.4 4.81 155.9 3 155.9-0.34L155.9-0.34 155.9-2.86Q153.26 0.51 148.65 0.51L148.65 0.51Q145.42 0.51 143.08-1.1L143.08-1.1Q140.74-2.69 139.48-5.55 138.22-8.42 138.22-12.21L138.22-12.21 138.22-12.72Q138.22-17.02 139.49-20.17L139.49-20.17Q140.74-23.36 143.08-25.13 145.42-26.9 148.7-26.9L148.7-26.9Q153.6-26.9 156.22-23.1L156.22-23.1 156.66-26.42ZM155.9-7.18L155.9-7.18 155.9-19.34Q154.97-21.02 153.48-22.01 151.99-23 149.89-23L149.89-23Q147.6-23 146.08-21.68L146.08-21.68Q144.55-20.36 143.79-18.05 143.03-15.75 143.03-12.72L143.03-12.72 143.03-12.21Q143.03-8.23 144.72-5.81 146.4-3.39 149.84-3.39L149.84-3.39Q152.02-3.39 153.48-4.38 154.95-5.37 155.9-7.18ZM178.41 0.51L178.41 0.51Q174.74 0.51 172.03-1.17L172.03-1.17Q169.32-2.83 167.85-5.81 166.37-8.79 166.37-12.7L166.37-12.7 166.37-13.77Q166.37-17.55 167.93-20.51L167.93-20.51Q169.47-23.49 172.05-25.2 174.62-26.9 177.67-26.9L177.67-26.9Q181.24-26.9 183.65-25.44L183.65-25.44Q186.05-23.97 187.27-21.33 188.49-18.68 188.49-15.09L188.49-15.09 188.49-12.08 171.35-12.08 171.28-11.96Q171.3-9.47 172.18-7.47L172.18-7.47Q173.03-5.49 174.61-4.37 176.18-3.25 178.41-3.25L178.41-3.25Q180.85-3.25 182.69-3.94 184.53-4.64 185.88-5.86L185.88-5.86 187.76-2.73Q186.34-1.37 184.01-0.43 181.68 0.51 178.41 0.51ZM171.45-15.97L171.45-15.97 171.5-15.84 183.68-15.84 183.68-16.48Q183.68-18.41 183.02-19.9L183.02-19.9Q182.34-21.41 181.01-22.27 179.68-23.12 177.67-23.12L177.67-23.12Q176.09-23.12 174.74-22.19L174.74-22.19Q172.01-20.21 171.45-15.97ZM215.05 10.67L215.05 10.67Q214.48 10.67 213.58 10.53 212.68 10.4 212.19 10.28L212.19 10.28 212.68 6.49Q213.09 6.54 213.83 6.58 214.56 6.62 214.83 6.62L214.83 6.62Q216.36 6.62 217.33 5.44 218.29 4.27 219.12 2.25L219.12 2.25 220.27-0.54 210.92-22.92 208.09-23.32 208.09-26.42 219.17-26.42 219.17-23.32 215.97-22.83 221.13-9.62 222.37-6.18 222.52-6.18 228.62-22.83 225.25-23.32 225.25-26.42 236.12-26.42 236.12-23.32 233.38-22.92 222.98 4.05Q222.25 5.98 221.22 7.47L221.22 7.47Q220.17 8.96 218.67 9.81 217.17 10.67 215.05 10.67ZM250.35 0.51L250.35 0.51Q246.71 0.51 244.05-1.22L244.05-1.22Q241.39-2.95 239.95-5.98 238.51-9.01 238.51-12.92L238.51-12.92 238.51-13.45Q238.51-17.33 239.95-20.41L239.95-20.41Q241.39-23.46 244.04-25.18 246.68-26.9 250.3-26.9L250.3-26.9Q253.94-26.9 256.62-25.17L256.62-25.17Q259.26-23.44 260.7-20.41 262.14-17.38 262.14-13.45L262.14-13.45 262.14-12.92Q262.14-9.03 260.7-5.96L260.7-5.96Q259.26-2.93 256.62-1.21 253.98 0.51 250.35 0.51ZM250.35-3.25L250.35-3.25Q252.64-3.25 254.2-4.52L254.2-4.52Q255.74-5.76 256.54-7.95 257.33-10.13 257.33-12.92L257.33-12.92 257.33-13.45Q257.33-16.21 256.55-18.43L256.55-18.43Q255.74-20.61 254.18-21.86 252.62-23.12 250.3-23.12L250.3-23.12Q248.03-23.12 246.44-21.88L246.44-21.88Q244.88-20.61 244.1-18.42 243.31-16.24 243.31-13.45L243.31-13.45 243.31-12.92Q243.31-10.16 244.1-7.96L244.1-7.96Q244.88-5.76 246.45-4.5 248.03-3.25 250.35-3.25ZM277.47 0.51L277.47 0.51Q273.17 0.51 270.75-2.25 268.34-5 268.34-10.84L268.34-10.84 268.34-22.63 265.31-23.32 265.31-26.42 273.15-26.42 273.15-10.79Q273.15-6.57 274.39-4.98 275.64-3.39 278.27-3.39L278.27-3.39Q280.84-3.39 282.51-4.43 284.18-5.47 285.04-7.37L285.04-7.37 285.04-22.63 281.5-23.32 281.5-26.42 289.85-26.42 289.85-3.76 292.87-3.08 292.87 0 285.52 0 285.21-3.91Q283.96-1.78 282-0.63 280.03 0.51 277.47 0.51ZM304.98-18.73L304.98-18.73 304.98-3.76 308.96-3.08 308.96 0 296.19 0 296.19-3.08 300.17-3.76 300.17-22.63 296.19-23.32 296.19-26.42 304.47-26.42 304.88-23.05 304.93-22.58Q306.05-24.61 307.7-25.76 309.35-26.9 311.47-26.9L311.47-26.9Q312.23-26.9 313.02-26.77 313.82-26.64 314.16-26.51L314.16-26.51 313.52-22.05 310.18-22.24Q308.28-22.36 306.98-21.37 305.69-20.39 304.98-18.73ZM341.99-2.73L341.99-2.73 341.99 6.37 346.19 7.06 346.19 10.16 333.44 10.16 333.44 7.06 337.18 6.37 337.18-22.63 333.2-23.32 333.2-26.42 341.3-26.42 341.74-23.19Q344.45-26.9 349.34-26.9L349.34-26.9Q352.63-26.9 354.93-25.15L354.93-25.15Q357.25-23.36 358.47-20.18 359.69-16.99 359.69-12.72L359.69-12.72 359.69-12.21Q359.69-8.42 358.47-5.54L358.47-5.54Q357.22-2.69 354.93-1.09 352.63 0.51 349.41 0.51L349.41 0.51Q344.6 0.51 341.99-2.73ZM347.92-3.25L347.92-3.25Q351.34-3.25 353.1-5.74 354.85-8.23 354.85-12.21L354.85-12.21 354.85-12.72Q354.85-15.72 354.07-18.07L354.07-18.07Q353.29-20.39 351.74-21.69 350.19-23 347.87-23L347.87-23Q345.82-23 344.35-22.07 342.89-21.14 341.99-19.53L341.99-19.53 341.99-6.67Q342.89-5.03 344.34-4.14 345.8-3.25 347.92-3.25ZM372.14-18.73L372.14-18.73 372.14-3.76 376.11-3.08 376.11 0 363.35 0 363.35-3.08 367.33-3.76 367.33-22.63 363.35-23.32 363.35-26.42 371.62-26.42 372.04-23.05 372.09-22.58Q373.21-24.61 374.86-25.76 376.51-26.9 378.63-26.9L378.63-26.9Q379.39-26.9 380.18-26.77 380.97-26.64 381.32-26.51L381.32-26.51 380.68-22.05 377.34-22.24Q375.43-22.36 374.14-21.37 372.84-20.39 372.14-18.73ZM396.18 0.51L396.18 0.51Q392.54 0.51 389.88-1.22L389.88-1.22Q387.22-2.95 385.78-5.98 384.34-9.01 384.34-12.92L384.34-12.92 384.34-13.45Q384.34-17.33 385.78-20.41L385.78-20.41Q387.22-23.46 389.87-25.18 392.52-26.9 396.13-26.9L396.13-26.9Q399.77-26.9 402.46-25.17L402.46-25.17Q405.09-23.44 406.53-20.41 407.97-17.38 407.97-13.45L407.97-13.45 407.97-12.92Q407.97-9.03 406.53-5.96L406.53-5.96Q405.09-2.93 402.46-1.21 399.82 0.51 396.18 0.51ZM396.18-3.25L396.18-3.25Q398.48-3.25 400.04-4.52L400.04-4.52Q401.58-5.76 402.37-7.95 403.16-10.13 403.16-12.92L403.16-12.92 403.16-13.45Q403.16-16.21 402.38-18.43L402.38-18.43Q401.58-20.61 400.01-21.86 398.45-23.12 396.13-23.12L396.13-23.12Q393.86-23.12 392.27-21.88L392.27-21.88Q390.71-20.61 389.93-18.42 389.15-16.24 389.15-13.45L389.15-13.45 389.15-12.92Q389.15-10.16 389.93-7.96L389.93-7.96Q390.71-5.76 392.29-4.5 393.86-3.25 396.18-3.25ZM419.49-2.73L419.49-2.73 419.49 6.37 423.69 7.06 423.69 10.16 410.95 10.16 410.95 7.06 414.68 6.37 414.68-22.63 410.7-23.32 410.7-26.42 418.81-26.42 419.25-23.19Q421.96-26.9 426.84-26.9L426.84-26.9Q430.14-26.9 432.43-25.15L432.43-25.15Q434.75-23.36 435.97-20.18 437.19-16.99 437.19-12.72L437.19-12.72 437.19-12.21Q437.19-8.42 435.97-5.54L435.97-5.54Q434.73-2.69 432.43-1.09 430.14 0.51 426.92 0.51L426.92 0.51Q422.11 0.51 419.49-2.73ZM425.43-3.25L425.43-3.25Q428.84-3.25 430.6-5.74 432.36-8.23 432.36-12.21L432.36-12.21 432.36-12.72Q432.36-15.72 431.58-18.07L431.58-18.07Q430.8-20.39 429.25-21.69 427.7-23 425.38-23L425.38-23Q423.33-23 421.86-22.07 420.4-21.14 419.49-19.53L419.49-19.53 419.49-6.67Q420.4-5.03 421.85-4.14 423.3-3.25 425.43-3.25ZM452.94 0.51L452.94 0.51Q449.28 0.51 446.57-1.17L446.57-1.17Q443.86-2.83 442.38-5.81 440.9-8.79 440.9-12.7L440.9-12.7 440.9-13.77Q440.9-17.55 442.46-20.51L442.46-20.51Q444-23.49 446.58-25.2 449.15-26.9 452.21-26.9L452.21-26.9Q455.77-26.9 458.19-25.44L458.19-25.44Q460.58-23.97 461.8-21.33 463.02-18.68 463.02-15.09L463.02-15.09 463.02-12.08 445.88-12.08 445.81-11.96Q445.83-9.47 446.71-7.47L446.71-7.47Q447.57-5.49 449.14-4.37 450.72-3.25 452.94-3.25L452.94-3.25Q455.38-3.25 457.22-3.94 459.07-4.64 460.41-5.86L460.41-5.86 462.29-2.73Q460.87-1.37 458.54-0.43 456.21 0.51 452.94 0.51ZM445.98-15.97L445.98-15.97 446.03-15.84 458.21-15.84 458.21-16.48Q458.21-18.41 457.55-19.9L457.55-19.9Q456.87-21.41 455.54-22.27 454.21-23.12 452.21-23.12L452.21-23.12Q450.62-23.12 449.28-22.19L449.28-22.19Q446.54-20.21 445.98-15.97ZM475.49-18.73L475.49-18.73 475.49-3.76 479.47-3.08 479.47 0 466.71 0 466.71-3.08 470.69-3.76 470.69-22.63 466.71-23.32 466.71-26.42 474.98-26.42 475.4-23.05 475.45-22.58Q476.57-24.61 478.22-25.76 479.86-26.9 481.99-26.9L481.99-26.9Q482.75-26.9 483.54-26.77 484.33-26.64 484.67-26.51L484.67-26.51 484.04-22.05 480.69-22.24Q478.79-22.36 477.5-21.37 476.2-20.39 475.49-18.73ZM496.93 0.42L496.93 0.42Q494 0.42 492.28-1.31 490.56-3.03 490.56-6.81L490.56-6.81 490.56-22.85 486.38-22.85 486.38-26.42 490.56-26.42 490.56-32.79 495.37-32.79 495.37-26.42 501.1-26.42 501.1-22.85 495.37-22.85 495.37-6.81Q495.37-4.91 496.12-4 496.88-3.1 498.15-3.1L498.15-3.1Q499-3.1 500.05-3.26 501.1-3.42 501.69-3.54L501.69-3.54 502.35-0.39Q501.3-0.07 499.77 0.17 498.25 0.42 496.93 0.42ZM514.04-32.93L508.99-32.93 508.99-38.09 514.04-38.09 514.04-32.93ZM505.25-3.08L509.23-3.76 509.23-22.63 505.25-23.32 505.25-26.42 514.04-26.42 514.04-3.76 518.02-3.08 518.02 0 505.25 0 505.25-3.08ZM533.37 0.51L533.37 0.51Q529.71 0.51 527-1.17L527-1.17Q524.29-2.83 522.81-5.81 521.34-8.79 521.34-12.7L521.34-12.7 521.34-13.77Q521.34-17.55 522.9-20.51L522.9-20.51Q524.44-23.49 527.01-25.2 529.59-26.9 532.64-26.9L532.64-26.9Q536.2-26.9 538.62-25.44L538.62-25.44Q541.01-23.97 542.24-21.33 543.46-18.68 543.46-15.09L543.46-15.09 543.46-12.08 526.32-12.08 526.24-11.96Q526.27-9.47 527.15-7.47L527.15-7.47Q528-5.49 529.58-4.37 531.15-3.25 533.37-3.25L533.37-3.25Q535.81-3.25 537.66-3.94 539.5-4.64 540.84-5.86L540.84-5.86 542.72-2.73Q541.31-1.37 538.98-0.43 536.64 0.51 533.37 0.51ZM526.41-15.97L526.41-15.97 526.46-15.84 538.65-15.84 538.65-16.48Q538.65-18.41 537.99-19.9L537.99-19.9Q537.3-21.41 535.97-22.27 534.64-23.12 532.64-23.12L532.64-23.12Q531.05-23.12 529.71-22.19L529.71-22.19Q526.98-20.21 526.41-15.97ZM557.88 0.51L557.88 0.51Q555.22 0.51 552.9-0.02 550.58-0.56 547.97-1.68L547.97-1.68 547.92-7.96 551.56-7.96 552.46-4.17Q555.05-3.1 557.88-3.1L557.88-3.1Q560.81-3.1 562.08-4.22 563.35-5.35 563.35-7.01L563.35-7.01Q563.35-8.57 562.07-9.66 560.79-10.74 557.42-11.5L557.42-11.5Q552.63-12.6 550.37-14.44 548.12-16.28 548.12-19.36L548.12-19.36Q548.12-21.51 549.36-23.22L549.36-23.22Q550.61-24.9 552.83-25.9 555.05-26.9 558-26.9L558-26.9Q561.01-26.9 563.14-26.22 565.28-25.54 566.87-24.39L566.87-24.39 567.11-18.36 563.5-18.36 562.72-21.88Q560.93-23.19 558-23.19L558-23.19Q555.76-23.19 554.35-22.14 552.95-21.09 552.95-19.51L552.95-19.51Q552.95-18.6 553.37-17.9L553.37-17.9Q553.8-17.14 555.12-16.58 556.44-16.02 558.27-15.58L558.27-15.58Q563.79-14.28 565.98-12.28 568.16-10.28 568.16-7.35L568.16-7.35Q568.16-4 565.68-1.75 563.2 0.51 557.88 0.51Z" opacity="1" transform="matrix(1,0,0,1,0,0)" fill="#0c0a0f" class="slogan-text-1" data-fill-palette-color="secondary" id="text-1"></path></svg></g></svg></g></svg></g></svg></g><g><svg viewBox="0 0 223.68205023810867 223.68205023810867" height="223.68205023810867" width="223.68205023810867"><g><svg></svg></g><g id="icon-0"><svg viewBox="0 0 223.68205023810867 223.68205023810867" height="223.68205023810867" width="223.68205023810867"><g><path d="M0 111.841c0-61.768 50.073-111.841 111.841-111.841 61.768 0 111.841 50.073 111.841 111.841 0 61.768-50.073 111.841-111.841 111.841-61.768 0-111.841-50.073-111.841-111.841zM111.841 218.505c58.909 0 106.664-47.755 106.664-106.664 0-58.909-47.755-106.664-106.664-106.664-58.909 0-106.664 47.755-106.664 106.664 0 58.909 47.755 106.664 106.664 106.664z" data-fill-palette-color="accent" fill="#2a3d25" stroke="transparent"></path></g><g transform="matrix(1,0,0,1,45.06854947354941,45.06003890841137)"><svg viewBox="0 0 133.54495129100985 133.56197242128593" height="133.56197242128593" width="133.54495129100985"><g><svg xmlns="http://www.w3.org/2000/svg" xmlns:xlink="http://www.w3.org/1999/xlink" version="1.1" x="0" y="0" viewBox="0.462 0.347 47.074999999999996 47.080999999999996" enable-background="new 0 0 48 48" xml:space="preserve" height="133.56197242128593" width="133.54495129100985" class="icon-dxe-0" data-fill-palette-color="accent" id="dxe-0"><path d="M24 47.424H24.022C24.032 47.424 24.042 47.428 24.051 47.428H24.054C24.069 47.428 24.084 47.422 24.099 47.422 37.032 47.367 47.537 36.832 47.537 23.885 47.537 10.97 37.081 0.455 24.19 0.352H24.175C24.117 0.351 24.06 0.347 24 0.347 11.021 0.347 0.462 10.907 0.462 23.885 0.462 36.865 11.021 47.424 24 47.424M44.374 23.885C44.374 26.56 43.851 29.113 42.908 31.455A49 49 0 0 0 37.821 29.994 26.6 26.6 0 0 0 38.546 23.885C38.546 21.775 38.281 19.702 37.802 17.697A61 61 0 0 0 42.887 16.258 20.3 20.3 0 0 1 44.374 23.885M35.381 23.885C35.381 25.754 35.146 27.588 34.721 29.361A61 61 0 0 0 25.583 28.465V19.296A60.5 60.5 0 0 0 34.705 18.345C35.141 20.138 35.381 21.994 35.381 23.885M22.418 42.912A23.57 23.57 0 0 1 14.366 32.476 58 58 0 0 1 22.418 31.683zM25.583 42.986V31.68C28.624 31.756 31.375 32.061 33.749 32.455A23.56 23.56 0 0 1 25.583 42.986M25.583 16.092V4.785A23.6 23.6 0 0 1 33.742 15.296 57.4 57.4 0 0 1 25.583 16.092M22.418 4.859V16.091C19.418 16.009 16.704 15.706 14.357 15.317A23.57 23.57 0 0 1 22.418 4.859M22.418 19.3V28.476C19.588 28.558 16.566 28.845 13.4 29.419A23.4 23.4 0 0 1 12.726 23.884C12.726 22.015 12.96 20.181 13.386 18.406 15.986 18.865 19.027 19.217 22.418 19.3M10.304 30.066C8.609 30.466 6.88 30.955 5.124 31.539A20.3 20.3 0 0 1 3.627 23.885C3.627 21.197 4.154 18.633 5.105 16.281 6.207 16.674 7.973 17.236 10.286 17.775A26.6 26.6 0 0 0 9.562 23.884C9.562 25.994 9.825 28.063 10.304 30.066M6.555 34.396A56 56 0 0 1 11.222 33.113 26.8 26.8 0 0 0 18.014 43.359 20.46 20.46 0 0 1 6.555 34.396M30.149 43.309A26.8 26.8 0 0 0 36.901 33.071 48 48 0 0 1 41.485 34.329 20.47 20.47 0 0 1 30.149 43.309M41.464 13.405C39.915 13.902 38.388 14.315 36.886 14.66A26.8 26.8 0 0 0 30.15 4.463 20.47 20.47 0 0 1 41.464 13.405M18.015 4.411A26.8 26.8 0 0 0 11.205 14.702 49 49 0 0 1 6.531 13.415 20.47 20.47 0 0 1 18.015 4.411" fill="#2a3d25" data-fill-palette-color="accent"></path></svg></g></svg></g></svg></g></svg></g></svg></g><defs></defs></svg><rect width="395.52" height="136.88671566798166" fill="none" stroke="none" visibility="hidden"></rect></g></svg></g></svg>